<svg width="16" height="16" viewBox="0 0 16 16" fill="none" xmlns="http://www.w3.org/2000/svg">
<g clip-path="url(#clip0_57_7702)">
<path fill-rule="evenodd" clip-rule="evenodd" d="M3.75636 6.28816L3.93333 5.75725H3.63636C3.36848 5.75725 3.15151 5.54028 3.15151 5.2724C3.15151 5.00452 3.36848 4.78755 3.63636 4.78755C3.93333 4.78755 4.25648 4.78755 4.25648 4.78755C4.25648 4.78755 4.48776 4.09374 4.63103 3.66465C4.69697 3.46659 4.88218 3.33301 5.09091 3.33301C6.2223 3.33301 9.7777 3.33301 10.9091 3.33301C11.1178 3.33301 11.303 3.46659 11.369 3.66465L11.7435 4.78755H12.3636C12.6315 4.78755 12.8485 5.00452 12.8485 5.2724C12.8485 5.54028 12.6315 5.75725 12.3636 5.75725H12.0667L12.2436 6.28816C12.8703 6.4501 13.3333 7.01931 13.3333 7.69664V12.0603C13.3333 12.3282 13.1164 12.5451 12.8485 12.5451C12.5522 12.5451 12.175 12.5451 11.8788 12.5451C11.6109 12.5451 11.3939 12.3282 11.3939 12.0603V11.5754H4.60606V12.0603C4.60606 12.3282 4.38909 12.5451 4.12121 12.5451C3.82497 12.5451 3.44776 12.5451 3.15151 12.5451C2.88364 12.5451 2.66667 12.3282 2.66667 12.0603C2.66667 11.1381 2.66667 9.09834 2.66667 7.69664C2.66667 7.01931 3.1297 6.4501 3.75636 6.28816ZM4.60606 8.18149C4.87394 8.18149 5.09091 8.39846 5.09091 8.66634C5.09091 8.93422 4.87394 9.15119 4.60606 9.15119C4.18303 9.15119 3.63636 9.15119 3.63636 9.15119V10.6057H5.27612C5.27612 10.6057 5.84582 9.46658 6.11176 8.93446C6.19394 8.7701 6.3617 8.66634 6.54545 8.66634C7.20824 8.66634 8.79176 8.66634 9.45454 8.66634C9.6383 8.66634 9.80606 8.7701 9.88824 8.93446C10.1542 9.46658 10.7239 10.6057 10.7239 10.6057H12.3636V9.15119H11.3939C11.1261 9.15119 10.9091 8.93422 10.9091 8.66634C10.9091 8.39846 11.1261 8.18149 11.3939 8.18149C11.817 8.18149 12.3636 8.18149 12.3636 8.18149V7.69664C12.3636 7.42877 12.1467 7.2118 11.8788 7.2118C10.351 7.2118 5.64897 7.2118 4.12121 7.2118C3.85333 7.2118 3.63636 7.42877 3.63636 7.69664V8.18149H4.60606ZM9.15491 9.63604H6.84509L6.36024 10.6057H9.63976L9.15491 9.63604ZM5.44048 4.3027L4.79394 6.2421H11.2061L10.5595 4.3027H5.44048Z" fill="#222222"/>
</g>
<defs>
<clipPath id="clip0_57_7702">
<rect width="16" height="16" fill="white"/>
</clipPath>
</defs>
</svg>
