<svg width="16" height="16" viewBox="0 0 16 16" fill="none" xmlns="http://www.w3.org/2000/svg">
<path d="M12.832 10.3689L11.408 9.55243L12.6456 9.00868C12.818 8.93293 12.8974 8.73118 12.8219 8.55818C12.7479 8.39081 12.54 8.30868 12.3712 8.38243L10.6705 9.12956L8.68737 7.99231L10.661 6.85306L12.381 7.60206C12.5556 7.67731 12.7577 7.59118 12.8299 7.42456C12.9047 7.25156 12.8252 7.05006 12.6529 6.97531L11.3966 6.42831L12.8279 5.60206C12.9069 5.55643 12.9634 5.48268 12.9869 5.39443C13.0104 5.30618 12.9982 5.21418 12.9525 5.13518C12.8615 4.97868 12.6435 4.91918 12.4857 5.01005L11.0641 5.83068L11.2164 4.48743C11.2269 4.3963 11.2011 4.30668 11.144 4.23493C11.0871 4.16368 11.006 4.11893 10.9161 4.10905C10.7249 4.08643 10.5574 4.22468 10.5377 4.41105L10.3446 6.25618L8.375 7.40206V5.12668L9.86562 4.01268C9.93612 3.96093 9.98225 3.88443 9.9955 3.79718C10.0092 3.70605 9.985 3.61055 9.92925 3.53505C9.82037 3.38743 9.61237 3.35355 9.46312 3.46343L8.375 4.27505V2.62568C8.375 2.42443 8.17687 2.28418 7.999 2.28418C7.82212 2.28418 7.625 2.42443 7.625 2.62568V4.26505L6.55337 3.4633C6.40675 3.35443 6.193 3.38743 6.08387 3.53493C6.02675 3.61193 6.00212 3.70893 6.016 3.8008C6.029 3.88668 6.0745 3.9618 6.14312 4.01193L7.625 5.11618V7.40093L5.68487 6.28018L5.47825 4.4338C5.45762 4.26155 5.31412 4.13168 5.14412 4.13168C5.1305 4.13168 5.11637 4.13243 5.10337 4.13418C4.91887 4.1553 4.78475 4.32468 4.8045 4.5133L4.96225 5.85681L3.50713 5.02218C3.45563 4.99281 3.39713 4.97718 3.338 4.97718C3.21575 4.97718 3.10225 5.04293 3.04175 5.14893C2.94888 5.3108 3.005 5.5198 3.168 5.6153L4.63237 6.45506L3.37825 7.00581C3.2945 7.04256 3.23013 7.10955 3.19725 7.19443C3.16413 7.27943 3.16625 7.37231 3.20288 7.45543C3.27488 7.62143 3.47625 7.70618 3.65275 7.63193L5.37 6.87793L7.31687 7.99418L5.36587 9.12056L3.66325 8.37893C3.49413 8.30556 3.28688 8.38793 3.21388 8.55581C3.13838 8.72818 3.21763 8.93006 3.39063 9.00606L4.62962 9.54556L3.17688 10.3843C3.01475 10.4793 2.959 10.6887 3.05263 10.8511C3.11338 10.9563 3.22713 11.0217 3.34888 11.0217C3.4095 11.0217 3.46875 11.0056 3.51913 10.9759L4.98163 10.1316L4.8265 11.4943C4.8165 11.5852 4.84237 11.6744 4.89962 11.7459C4.95662 11.8171 5.03787 11.8619 5.12537 11.8714C5.13875 11.8733 5.15313 11.8737 5.16737 11.8737C5.34113 11.8737 5.48687 11.7434 5.5065 11.5697L5.702 9.70618L7.625 8.58781V10.8578L6.3045 11.9624C6.1635 12.0806 6.1475 12.2962 6.26775 12.4416C6.331 12.5199 6.43112 12.5667 6.53562 12.5667C6.63 12.5667 6.69337 12.5262 6.74075 12.4886L7.625 11.7469V13.3734C7.625 13.5747 7.82212 13.7149 7.999 13.7149C8.17687 13.7149 8.375 13.5747 8.375 13.3734V11.7359L9.27287 12.4901C9.42237 12.6104 9.62462 12.5819 9.73925 12.4431C9.79675 12.3739 9.82712 12.2881 9.82462 12.2009C9.822 12.1063 9.781 12.0214 9.70975 11.9621L8.375 10.8466V8.58243L10.3385 9.71693L10.5467 11.5807C10.5674 11.7526 10.7112 11.8822 10.8816 11.8822C10.8977 11.8822 10.9077 11.8813 10.9187 11.8797C11.0087 11.8698 11.0895 11.8251 11.1461 11.7541C11.2034 11.6823 11.2291 11.5924 11.2185 11.5011L11.0599 10.1402L12.4922 10.9616C12.5436 10.9912 12.6024 11.0068 12.6621 11.0068C12.7845 11.0068 12.898 10.9409 12.9581 10.8349C13.0512 10.6724 12.995 10.4633 12.832 10.3689Z" fill="#222222"/>
</svg>
