<svg width="39" height="39" viewBox="0 0 39 39" fill="none" xmlns="http://www.w3.org/2000/svg">
<g clip-path="url(#clip0_57_3457)">
<rect width="50" height="50" fill="white"/>
<path d="M17.2279 20.0003L20.3259 16.8578C20.5214 16.6608 20.5214 16.3408 20.3259 16.1438C20.1304 15.9468 19.8139 15.9468 19.6189 16.1438L16.1694 19.6433C15.9819 19.8328 15.9809 20.1673 16.1694 20.3578L19.6194 23.8573C19.8144 24.0543 20.1314 24.0543 20.3264 23.8573C20.5219 23.6603 20.5219 23.3403 20.3264 23.1433L17.2279 20.0003Z" fill="#121313"/>
<path d="M20.7279 20.0003L23.8259 16.8578C24.0214 16.6608 24.0214 16.3408 23.8259 16.1438C23.6304 15.9468 23.3139 15.9468 23.1189 16.1438L19.6694 19.6433C19.4819 19.8328 19.4809 20.1673 19.6694 20.3578L23.1189 23.8573C23.3144 24.0543 23.6309 24.0543 23.8259 23.8573C24.0214 23.6603 24.0214 23.3403 23.8259 23.1433L20.7279 20.0003Z" fill="#121313"/>
</g>
<defs>
<clipPath id="clip0_57_3457">
<rect width="39" height="39" fill="white"/>
</clipPath>
</defs>
</svg>
