<svg width="39" height="39" viewBox="0 0 39 39" fill="none" xmlns="http://www.w3.org/2000/svg">
<g clip-path="url(#clip0_57_3463)">
<rect width="50" height="50" fill="white"/>
<path d="M22.7721 20.0003L19.6741 16.8578C19.4786 16.6608 19.4786 16.3408 19.6741 16.1438C19.8696 15.9468 20.1861 15.9468 20.3811 16.1438L23.8306 19.6433C24.0181 19.8328 24.0191 20.1673 23.8306 20.3578L20.3806 23.8573C20.1856 24.0543 19.8686 24.0543 19.6736 23.8573C19.4781 23.6603 19.4781 23.3403 19.6736 23.1433L22.7721 20.0003Z" fill="#121313"/>
<path d="M19.2721 20.0003L16.1741 16.8578C15.9786 16.6608 15.9786 16.3408 16.1741 16.1438C16.3696 15.9468 16.6861 15.9468 16.8811 16.1438L20.3306 19.6433C20.5181 19.8328 20.5191 20.1673 20.3306 20.3578L16.8811 23.8573C16.6856 24.0543 16.3691 24.0543 16.1741 23.8573C15.9786 23.6603 15.9786 23.3403 16.1741 23.1433L19.2721 20.0003Z" fill="#121313"/>
</g>
<defs>
<clipPath id="clip0_57_3463">
<rect width="39" height="39" fill="white"/>
</clipPath>
</defs>
</svg>
