<svg width="16" height="16" viewBox="0 0 16 16" fill="none" xmlns="http://www.w3.org/2000/svg">
<path d="M7.95001 9.32047C7.24316 9.32047 6.53631 9.61153 6.07893 10.1521C5.66313 10.651 4.9147 9.98575 5.3305 9.48679C5.99577 8.73836 6.9521 8.32256 7.95001 8.32256C8.94793 8.32256 9.90426 8.73836 10.5695 9.48679C10.9853 9.98575 10.2369 10.651 9.8211 10.1521C9.36372 9.61153 8.65687 9.32047 7.95001 9.32047ZM7.95001 12.8132C7.40948 12.8132 6.9521 12.3558 6.9521 11.8153C6.9521 11.2747 7.40948 10.8173 7.95001 10.8173C8.49055 10.8173 8.94793 11.2747 8.94793 11.8153C8.94793 12.3558 8.49055 12.8132 7.95001 12.8132ZM7.95001 6.8257C6.61947 6.8257 5.41366 7.28307 4.45732 8.2394C4.04153 8.6552 3.25152 8.03151 3.75047 7.53255C4.87312 6.4099 6.36999 5.82779 7.95001 5.82779C9.53004 5.82779 11.0269 6.4099 12.1496 7.53255C12.6485 8.03151 11.8585 8.6552 11.4427 8.2394C10.4864 7.28307 9.28056 6.8257 7.95001 6.8257ZM7.95001 4.33092C6.03735 4.33092 4.24943 5.03777 2.8773 6.32674C2.37834 6.78412 1.67149 6.07726 2.17044 5.61989C3.79205 4.12302 5.78787 3.33301 7.95001 3.33301C10.1122 3.33301 12.108 4.12302 13.7296 5.61989C14.2285 6.07726 13.5217 6.78412 13.0227 6.32674C11.6506 5.03777 9.86268 4.33092 7.95001 4.33092Z" fill="#222222"/>
</svg>
